
<svg width="700" height="700" xmlns="http://www.w3.org/2000/svg">
    <path
        stroke="#e8456f"
        strokeOpacity="1" fill="none"
        pointerEvents="visibleStroke"
        fillOpacity="1"
        stroke-width="50"
        d="M 53 313 Q 350 350 388 67"></path>
    <path
        stroke="#e8456f"
        strokeOpacity="1" fill="none"
        pointerEvents="visibleStroke"
        fillOpacity="1"
        stroke-width="50"
        d="M 312 67 Q 350 350 647 313"></path>
    <path
        stroke="#e8456f"
        strokeOpacity="1" fill="none"
        pointerEvents="visibleStroke"
        fillOpacity="1"
        stroke-width="50"
        d="M 625 238 Q 350 350 495 634"></path>
    <path
        stroke="#e8456f"
        strokeOpacity="1" fill="none"
        pointerEvents="visibleStroke"
        fillOpacity="1"
        stroke-width="50"
        d="M 140 587 Q 350 350 560 587"></path>
    <path
        stroke="#e8456f"
        strokeOpacity="1" fill="none"
        pointerEvents="visibleStroke"
        fillOpacity="1"
        stroke-width="50"
        d="M 75 238 Q 350 350 205 634"></path>
    <circle cx="53" cy="313" r="25" fill="#e8456f"></circle>
    <circle cx="388" cy="67" r="25" fill="#e8456f"></circle>
    <circle cx="312" cy="67" r="25" fill="#e8456f"></circle>
    <circle cx="647" cy="313" r="25" fill="#e8456f"></circle>
    <circle cx="625" cy="238" r="25" fill="#e8456f"></circle>
    <circle cx="495" cy="634" r="25" fill="#e8456f"></circle>
    <circle cx="140" cy="587" r="25" fill="#e8456f"></circle>
    <circle cx="560" cy="587" r="25" fill="#e8456f"></circle>
    <circle cx="75" cy="238" r="25" fill="#e8456f"></circle>
    <circle cx="205" cy="634" r="25" fill="#e8456f"></circle>
</svg>